<mxfile host="app.diagrams.net" agent="Mozilla/5.0 (Windows NT 10.0; Win64; x64) AppleWebKit/537.36 (KHTML, like Gecko) Chrome/134.0.0.0 Safari/537.36" version="26.1.1">
  <diagram name="Seite-1" id="4UGHNR5_hJcOm6MZm0SV">
    <mxGraphModel dx="192" dy="104" grid="1" gridSize="10" guides="1" tooltips="1" connect="1" arrows="1" fold="1" page="1" pageScale="1" pageWidth="827" pageHeight="1169" math="0" shadow="0">
      <root>
        <mxCell id="0" />
        <mxCell id="1" parent="0" />
        <mxCell id="2Kko4T62h-KNPnaEC-yO-81" value="" style="group;fillColor=none;" parent="1" vertex="1" connectable="0">
          <mxGeometry x="10" y="15" width="79.5" height="70" as="geometry" />
        </mxCell>
        <mxCell id="2Kko4T62h-KNPnaEC-yO-57" value="" style="group;strokeColor=none;" parent="2Kko4T62h-KNPnaEC-yO-81" vertex="1" connectable="0">
          <mxGeometry x="5" width="5" height="70" as="geometry" />
        </mxCell>
        <mxCell id="2Kko4T62h-KNPnaEC-yO-15" value="" style="endArrow=none;html=1;rounded=0;strokeColor=#000000;" parent="2Kko4T62h-KNPnaEC-yO-57" source="2Kko4T62h-KNPnaEC-yO-14" edge="1">
          <mxGeometry width="50" height="50" relative="1" as="geometry">
            <mxPoint x="2.500000000000001" y="75" as="sourcePoint" />
            <mxPoint x="2.500000000000001" as="targetPoint" />
          </mxGeometry>
        </mxCell>
        <mxCell id="2Kko4T62h-KNPnaEC-yO-50" value="" style="endArrow=none;html=1;rounded=0;strokeColor=#000000;" parent="2Kko4T62h-KNPnaEC-yO-57" target="2Kko4T62h-KNPnaEC-yO-14" edge="1">
          <mxGeometry width="50" height="50" relative="1" as="geometry">
            <mxPoint x="2.500000000000001" y="70" as="sourcePoint" />
            <mxPoint x="2.500000000000001" y="-5" as="targetPoint" />
          </mxGeometry>
        </mxCell>
        <mxCell id="2Kko4T62h-KNPnaEC-yO-14" value="" style="rounded=1;whiteSpace=wrap;html=1;arcSize=50;rotation=90;fillColor=#000000;container=0;strokeColor=#000000;" parent="2Kko4T62h-KNPnaEC-yO-57" vertex="1">
          <mxGeometry x="-27.499999999999993" y="32.5" width="59.999999999999986" height="5" as="geometry" />
        </mxCell>
        <mxCell id="2Kko4T62h-KNPnaEC-yO-58" value="" style="group" parent="2Kko4T62h-KNPnaEC-yO-81" vertex="1" connectable="0">
          <mxGeometry x="18" width="5" height="70" as="geometry" />
        </mxCell>
        <mxCell id="2Kko4T62h-KNPnaEC-yO-59" value="" style="endArrow=none;html=1;rounded=0;strokeColor=#000000;" parent="2Kko4T62h-KNPnaEC-yO-58" source="2Kko4T62h-KNPnaEC-yO-61" edge="1">
          <mxGeometry width="50" height="50" relative="1" as="geometry">
            <mxPoint x="2.500000000000001" y="75" as="sourcePoint" />
            <mxPoint x="2.500000000000001" as="targetPoint" />
          </mxGeometry>
        </mxCell>
        <mxCell id="2Kko4T62h-KNPnaEC-yO-60" value="" style="endArrow=none;html=1;rounded=0;strokeColor=#000000;" parent="2Kko4T62h-KNPnaEC-yO-58" target="2Kko4T62h-KNPnaEC-yO-61" edge="1">
          <mxGeometry width="50" height="50" relative="1" as="geometry">
            <mxPoint x="2.500000000000001" y="70" as="sourcePoint" />
            <mxPoint x="2.500000000000001" y="-5" as="targetPoint" />
          </mxGeometry>
        </mxCell>
        <mxCell id="2Kko4T62h-KNPnaEC-yO-61" value="" style="rounded=1;whiteSpace=wrap;html=1;arcSize=50;rotation=90;fillColor=#000000;container=0;strokeColor=#000000;" parent="2Kko4T62h-KNPnaEC-yO-58" vertex="1">
          <mxGeometry x="-27.499999999999993" y="32.5" width="59.999999999999986" height="5" as="geometry" />
        </mxCell>
        <mxCell id="2Kko4T62h-KNPnaEC-yO-62" value="" style="group" parent="2Kko4T62h-KNPnaEC-yO-81" vertex="1" connectable="0">
          <mxGeometry x="31" width="5" height="70" as="geometry" />
        </mxCell>
        <mxCell id="2Kko4T62h-KNPnaEC-yO-63" value="" style="endArrow=none;html=1;rounded=0;strokeColor=#000000;" parent="2Kko4T62h-KNPnaEC-yO-62" source="2Kko4T62h-KNPnaEC-yO-65" edge="1">
          <mxGeometry width="50" height="50" relative="1" as="geometry">
            <mxPoint x="2.500000000000001" y="75" as="sourcePoint" />
            <mxPoint x="2.500000000000001" as="targetPoint" />
          </mxGeometry>
        </mxCell>
        <mxCell id="2Kko4T62h-KNPnaEC-yO-64" value="" style="endArrow=none;html=1;rounded=0;strokeColor=#000000;" parent="2Kko4T62h-KNPnaEC-yO-62" target="2Kko4T62h-KNPnaEC-yO-65" edge="1">
          <mxGeometry width="50" height="50" relative="1" as="geometry">
            <mxPoint x="2.500000000000001" y="70" as="sourcePoint" />
            <mxPoint x="2.500000000000001" y="-5" as="targetPoint" />
          </mxGeometry>
        </mxCell>
        <mxCell id="2Kko4T62h-KNPnaEC-yO-65" value="" style="rounded=1;whiteSpace=wrap;html=1;arcSize=50;rotation=90;fillColor=#000000;container=0;strokeColor=#000000;" parent="2Kko4T62h-KNPnaEC-yO-62" vertex="1">
          <mxGeometry x="-27.499999999999993" y="32.5" width="59.999999999999986" height="5" as="geometry" />
        </mxCell>
        <mxCell id="2Kko4T62h-KNPnaEC-yO-66" value="" style="group" parent="2Kko4T62h-KNPnaEC-yO-81" vertex="1" connectable="0">
          <mxGeometry x="44" width="5" height="70" as="geometry" />
        </mxCell>
        <mxCell id="2Kko4T62h-KNPnaEC-yO-67" value="" style="endArrow=none;html=1;rounded=0;strokeColor=#000000;" parent="2Kko4T62h-KNPnaEC-yO-66" source="2Kko4T62h-KNPnaEC-yO-69" edge="1">
          <mxGeometry width="50" height="50" relative="1" as="geometry">
            <mxPoint x="2.500000000000001" y="75" as="sourcePoint" />
            <mxPoint x="2.500000000000001" as="targetPoint" />
          </mxGeometry>
        </mxCell>
        <mxCell id="2Kko4T62h-KNPnaEC-yO-68" value="" style="endArrow=none;html=1;rounded=0;strokeColor=#000000;" parent="2Kko4T62h-KNPnaEC-yO-66" target="2Kko4T62h-KNPnaEC-yO-69" edge="1">
          <mxGeometry width="50" height="50" relative="1" as="geometry">
            <mxPoint x="2.500000000000001" y="70" as="sourcePoint" />
            <mxPoint x="2.500000000000001" y="-5" as="targetPoint" />
          </mxGeometry>
        </mxCell>
        <mxCell id="2Kko4T62h-KNPnaEC-yO-69" value="" style="rounded=1;whiteSpace=wrap;html=1;arcSize=50;rotation=90;fillColor=#000000;container=0;strokeColor=#000000;" parent="2Kko4T62h-KNPnaEC-yO-66" vertex="1">
          <mxGeometry x="-27.499999999999993" y="32.5" width="59.999999999999986" height="5" as="geometry" />
        </mxCell>
        <mxCell id="2Kko4T62h-KNPnaEC-yO-70" value="" style="group" parent="2Kko4T62h-KNPnaEC-yO-81" vertex="1" connectable="0">
          <mxGeometry x="57" width="5" height="70" as="geometry" />
        </mxCell>
        <mxCell id="2Kko4T62h-KNPnaEC-yO-71" value="" style="endArrow=none;html=1;rounded=0;strokeColor=#000000;" parent="2Kko4T62h-KNPnaEC-yO-70" source="2Kko4T62h-KNPnaEC-yO-73" edge="1">
          <mxGeometry width="50" height="50" relative="1" as="geometry">
            <mxPoint x="2.500000000000001" y="75" as="sourcePoint" />
            <mxPoint x="2.500000000000001" as="targetPoint" />
          </mxGeometry>
        </mxCell>
        <mxCell id="2Kko4T62h-KNPnaEC-yO-72" value="" style="endArrow=none;html=1;rounded=0;strokeColor=#000000;" parent="2Kko4T62h-KNPnaEC-yO-70" target="2Kko4T62h-KNPnaEC-yO-73" edge="1">
          <mxGeometry width="50" height="50" relative="1" as="geometry">
            <mxPoint x="2.500000000000001" y="70" as="sourcePoint" />
            <mxPoint x="2.500000000000001" y="-5" as="targetPoint" />
          </mxGeometry>
        </mxCell>
        <mxCell id="2Kko4T62h-KNPnaEC-yO-73" value="" style="rounded=1;whiteSpace=wrap;html=1;arcSize=50;rotation=90;fillColor=#000000;container=0;strokeColor=#000000;" parent="2Kko4T62h-KNPnaEC-yO-70" vertex="1">
          <mxGeometry x="-27.499999999999993" y="32.5" width="59.999999999999986" height="5" as="geometry" />
        </mxCell>
        <mxCell id="2Kko4T62h-KNPnaEC-yO-74" value="" style="group" parent="2Kko4T62h-KNPnaEC-yO-81" vertex="1" connectable="0">
          <mxGeometry x="70" width="5" height="70" as="geometry" />
        </mxCell>
        <mxCell id="2Kko4T62h-KNPnaEC-yO-75" value="" style="endArrow=none;html=1;rounded=0;strokeColor=#000000;" parent="2Kko4T62h-KNPnaEC-yO-74" source="2Kko4T62h-KNPnaEC-yO-77" edge="1">
          <mxGeometry width="50" height="50" relative="1" as="geometry">
            <mxPoint x="2.500000000000001" y="75" as="sourcePoint" />
            <mxPoint x="2.500000000000001" as="targetPoint" />
          </mxGeometry>
        </mxCell>
        <mxCell id="2Kko4T62h-KNPnaEC-yO-76" value="" style="endArrow=none;html=1;rounded=0;strokeColor=#000000;" parent="2Kko4T62h-KNPnaEC-yO-74" target="2Kko4T62h-KNPnaEC-yO-77" edge="1">
          <mxGeometry width="50" height="50" relative="1" as="geometry">
            <mxPoint x="2.500000000000001" y="70" as="sourcePoint" />
            <mxPoint x="2.500000000000001" y="-5" as="targetPoint" />
          </mxGeometry>
        </mxCell>
        <mxCell id="2Kko4T62h-KNPnaEC-yO-77" value="" style="rounded=1;whiteSpace=wrap;html=1;arcSize=50;rotation=90;fillColor=#000000;container=0;strokeColor=#000000;" parent="2Kko4T62h-KNPnaEC-yO-74" vertex="1">
          <mxGeometry x="-27.499999999999993" y="32.5" width="59.999999999999986" height="5" as="geometry" />
        </mxCell>
        <mxCell id="2Kko4T62h-KNPnaEC-yO-79" value="" style="endArrow=none;html=1;rounded=0;strokeColor=#000000;" parent="2Kko4T62h-KNPnaEC-yO-81" edge="1">
          <mxGeometry width="50" height="50" relative="1" as="geometry">
            <mxPoint x="1" y="10" as="sourcePoint" />
            <mxPoint x="75.5" y="10" as="targetPoint" />
          </mxGeometry>
        </mxCell>
        <mxCell id="2Kko4T62h-KNPnaEC-yO-80" value="" style="endArrow=none;html=1;rounded=0;strokeColor=#000000;" parent="2Kko4T62h-KNPnaEC-yO-81" edge="1">
          <mxGeometry width="50" height="50" relative="1" as="geometry">
            <mxPoint x="5" y="60" as="sourcePoint" />
            <mxPoint x="79.5" y="60" as="targetPoint" />
          </mxGeometry>
        </mxCell>
      </root>
    </mxGraphModel>
  </diagram>
</mxfile>
